<mxfile host="app.diagrams.net" agent="Mozilla/5.0 (Macintosh; Intel Mac OS X 10_15_7) AppleWebKit/605.1.15 (KHTML, like Gecko) Version/18.3 Safari/605.1.15" version="26.0.11">
  <diagram name="Page-1" id="IK1KkRtoNeqFR3WlSVLb">
    <mxGraphModel dx="1363" dy="2058" grid="1" gridSize="10" guides="1" tooltips="1" connect="1" arrows="1" fold="1" page="1" pageScale="1" pageWidth="827" pageHeight="1169" math="0" shadow="0">
      <root>
        <mxCell id="0" />
        <mxCell id="1" parent="0" />
        <mxCell id="RSMacvFGFgpkKbJDah5S-69" style="edgeStyle=orthogonalEdgeStyle;rounded=0;orthogonalLoop=1;jettySize=auto;html=1;exitX=1;exitY=0;exitDx=0;exitDy=0;entryX=1;entryY=1;entryDx=0;entryDy=0;curved=1;" edge="1" parent="1" source="RSMacvFGFgpkKbJDah5S-3" target="RSMacvFGFgpkKbJDah5S-14">
          <mxGeometry relative="1" as="geometry">
            <Array as="points">
              <mxPoint x="550" y="233" />
              <mxPoint x="550" y="87" />
            </Array>
          </mxGeometry>
        </mxCell>
        <mxCell id="RSMacvFGFgpkKbJDah5S-3" value="MEASURE-MENT&lt;div&gt;PENDING&lt;/div&gt;" style="ellipse;whiteSpace=wrap;html=1;aspect=fixed;" vertex="1" parent="1">
          <mxGeometry x="420" y="220" width="90" height="90" as="geometry" />
        </mxCell>
        <mxCell id="RSMacvFGFgpkKbJDah5S-16" style="edgeStyle=orthogonalEdgeStyle;rounded=0;orthogonalLoop=1;jettySize=auto;html=1;exitX=0.5;exitY=1;exitDx=0;exitDy=0;entryX=0.5;entryY=0;entryDx=0;entryDy=0;" edge="1" parent="1" source="RSMacvFGFgpkKbJDah5S-14" target="RSMacvFGFgpkKbJDah5S-3">
          <mxGeometry relative="1" as="geometry" />
        </mxCell>
        <mxCell id="RSMacvFGFgpkKbJDah5S-14" value="IDLE&lt;div&gt;(FREE RUNNING)&lt;/div&gt;" style="ellipse;whiteSpace=wrap;html=1;aspect=fixed;" vertex="1" parent="1">
          <mxGeometry x="420" y="10" width="90" height="90" as="geometry" />
        </mxCell>
        <mxCell id="RSMacvFGFgpkKbJDah5S-19" value="CLK IN interrupt/&lt;div&gt;MIDI CLK interrupt/&lt;/div&gt;&lt;div&gt;TAP TEMPO DEPRESSED&lt;br&gt;&lt;div&gt;(first IP CAP)&lt;/div&gt;&lt;/div&gt;" style="text;html=1;align=center;verticalAlign=middle;resizable=0;points=[];autosize=1;strokeColor=none;fillColor=none;fontSize=8;rotation=-90;" vertex="1" parent="1">
          <mxGeometry x="380" y="130" width="120" height="50" as="geometry" />
        </mxCell>
        <mxCell id="RSMacvFGFgpkKbJDah5S-24" value="&lt;font style=&quot;font-size: 8px;&quot;&gt;IP CAP timeout&lt;/font&gt;" style="text;html=1;align=center;verticalAlign=middle;resizable=0;points=[];autosize=1;strokeColor=none;fillColor=none;" vertex="1" parent="1">
          <mxGeometry x="550" y="140" width="80" height="30" as="geometry" />
        </mxCell>
        <mxCell id="RSMacvFGFgpkKbJDah5S-33" value="&lt;span style=&quot;caret-color: rgb(0, 0, 0); color: rgb(0, 0, 0); font-family: Helvetica; font-size: 12px; font-style: normal; font-variant-caps: normal; letter-spacing: normal; text-align: center; text-indent: 0px; text-transform: none; white-space: normal; word-spacing: 0px; -webkit-text-stroke-width: 0px; background-color: rgb(251, 251, 251); text-decoration: none; float: none; display: inline !important;&quot;&gt;&lt;b&gt;MIDI CLK MODE PENDING + RESYNC FLOW DIAGRAM&lt;/b&gt;&lt;/span&gt;" style="text;whiteSpace=wrap;html=1;" vertex="1" parent="1">
          <mxGeometry x="827" y="30" width="180" height="40" as="geometry" />
        </mxCell>
        <mxCell id="RSMacvFGFgpkKbJDah5S-38" style="edgeStyle=orthogonalEdgeStyle;rounded=0;orthogonalLoop=1;jettySize=auto;html=1;exitX=0.5;exitY=1;exitDx=0;exitDy=0;entryX=0.5;entryY=0;entryDx=0;entryDy=0;" edge="1" parent="1" source="RSMacvFGFgpkKbJDah5S-35" target="RSMacvFGFgpkKbJDah5S-37">
          <mxGeometry relative="1" as="geometry" />
        </mxCell>
        <mxCell id="RSMacvFGFgpkKbJDah5S-35" value="WAIT 1" style="ellipse;whiteSpace=wrap;html=1;aspect=fixed;" vertex="1" parent="1">
          <mxGeometry x="850" y="70" width="90" height="90" as="geometry" />
        </mxCell>
        <mxCell id="RSMacvFGFgpkKbJDah5S-118" style="edgeStyle=orthogonalEdgeStyle;rounded=0;orthogonalLoop=1;jettySize=auto;html=1;exitX=1;exitY=0.5;exitDx=0;exitDy=0;entryX=0;entryY=0.5;entryDx=0;entryDy=0;" edge="1" parent="1" source="RSMacvFGFgpkKbJDah5S-36" target="RSMacvFGFgpkKbJDah5S-117">
          <mxGeometry relative="1" as="geometry" />
        </mxCell>
        <mxCell id="RSMacvFGFgpkKbJDah5S-134" style="edgeStyle=orthogonalEdgeStyle;rounded=0;orthogonalLoop=1;jettySize=auto;html=1;exitX=0.5;exitY=1;exitDx=0;exitDy=0;entryX=0.5;entryY=0;entryDx=0;entryDy=0;" edge="1" parent="1" source="RSMacvFGFgpkKbJDah5S-36" target="RSMacvFGFgpkKbJDah5S-132">
          <mxGeometry relative="1" as="geometry" />
        </mxCell>
        <mxCell id="RSMacvFGFgpkKbJDah5S-36" value="12 MIDI&amp;nbsp;&lt;div&gt;CLK interrupts received?&lt;/div&gt;" style="rhombus;whiteSpace=wrap;html=1;" vertex="1" parent="1">
          <mxGeometry x="830" y="430" width="130" height="80" as="geometry" />
        </mxCell>
        <mxCell id="RSMacvFGFgpkKbJDah5S-102" style="edgeStyle=orthogonalEdgeStyle;rounded=0;orthogonalLoop=1;jettySize=auto;html=1;exitX=0.5;exitY=1;exitDx=0;exitDy=0;entryX=0.5;entryY=0;entryDx=0;entryDy=0;" edge="1" parent="1" source="RSMacvFGFgpkKbJDah5S-37" target="RSMacvFGFgpkKbJDah5S-101">
          <mxGeometry relative="1" as="geometry" />
        </mxCell>
        <mxCell id="RSMacvFGFgpkKbJDah5S-37" value="MIDI CLK interrupt received" style="rounded=0;whiteSpace=wrap;html=1;" vertex="1" parent="1">
          <mxGeometry x="835" y="210" width="120" height="60" as="geometry" />
        </mxCell>
        <mxCell id="RSMacvFGFgpkKbJDah5S-55" value="&lt;span style=&quot;caret-color: rgb(0, 0, 0); color: rgb(0, 0, 0); font-family: Helvetica; font-size: 12px; font-style: normal; font-variant-caps: normal; letter-spacing: normal; text-align: center; text-indent: 0px; text-transform: none; white-space: normal; word-spacing: 0px; -webkit-text-stroke-width: 0px; background-color: rgb(251, 251, 251); text-decoration: none; float: none; display: inline !important;&quot;&gt;&lt;b&gt;THESE STATES ARE DISCONNECTED FROM THE SPEED POT OR NORMAL POT STATES&lt;/b&gt;&lt;/span&gt;" style="text;whiteSpace=wrap;html=1;" vertex="1" parent="1">
          <mxGeometry x="190" y="-60" width="180" height="40" as="geometry" />
        </mxCell>
        <mxCell id="RSMacvFGFgpkKbJDah5S-79" style="edgeStyle=orthogonalEdgeStyle;rounded=0;orthogonalLoop=1;jettySize=auto;html=1;exitX=1;exitY=0.5;exitDx=0;exitDy=0;entryX=1;entryY=0.5;entryDx=0;entryDy=0;curved=1;" edge="1" parent="1" source="RSMacvFGFgpkKbJDah5S-66" target="RSMacvFGFgpkKbJDah5S-14">
          <mxGeometry relative="1" as="geometry">
            <Array as="points">
              <mxPoint x="690" y="475" />
              <mxPoint x="690" y="55" />
            </Array>
          </mxGeometry>
        </mxCell>
        <mxCell id="RSMacvFGFgpkKbJDah5S-66" value="MEASURE-&lt;div&gt;MENT&lt;/div&gt;&lt;div&gt;REELAPSE&lt;/div&gt;" style="ellipse;whiteSpace=wrap;html=1;aspect=fixed;" vertex="1" parent="1">
          <mxGeometry x="420" y="430" width="90" height="90" as="geometry" />
        </mxCell>
        <mxCell id="RSMacvFGFgpkKbJDah5S-67" style="edgeStyle=orthogonalEdgeStyle;rounded=0;orthogonalLoop=1;jettySize=auto;html=1;exitX=0.5;exitY=1;exitDx=0;exitDy=0;entryX=0.5;entryY=0;entryDx=0;entryDy=0;" edge="1" parent="1" target="RSMacvFGFgpkKbJDah5S-66">
          <mxGeometry relative="1" as="geometry">
            <mxPoint x="465" y="310" as="sourcePoint" />
          </mxGeometry>
        </mxCell>
        <mxCell id="RSMacvFGFgpkKbJDah5S-70" value="CLK IN interrupt/&lt;div&gt;25th MIDI CLK interrupt/&lt;/div&gt;&lt;div&gt;TAP TEMPO Depressed&lt;br&gt;&lt;div&gt;(second IP CAP)&lt;/div&gt;&lt;/div&gt;" style="text;html=1;align=center;verticalAlign=middle;resizable=0;points=[];autosize=1;strokeColor=none;fillColor=none;fontSize=8;rotation=-90;" vertex="1" parent="1">
          <mxGeometry x="385" y="340" width="110" height="50" as="geometry" />
        </mxCell>
        <mxCell id="RSMacvFGFgpkKbJDah5S-71" value="CLK IN interrupt/&lt;div&gt;25th MIDI CLK interrupt/&lt;/div&gt;&lt;div&gt;TAP TEMPO DEPRESSED&lt;br&gt;&lt;div&gt;(first IP CAP)&lt;/div&gt;&lt;/div&gt;" style="text;html=1;align=center;verticalAlign=middle;resizable=0;points=[];autosize=1;strokeColor=none;fillColor=none;fontSize=8;rotation=-90;" vertex="1" parent="1">
          <mxGeometry x="380" y="550" width="120" height="50" as="geometry" />
        </mxCell>
        <mxCell id="RSMacvFGFgpkKbJDah5S-74" value="" style="edgeStyle=orthogonalEdgeStyle;rounded=0;orthogonalLoop=1;jettySize=auto;html=1;exitX=0.5;exitY=1;exitDx=0;exitDy=0;" edge="1" parent="1" source="RSMacvFGFgpkKbJDah5S-66" target="RSMacvFGFgpkKbJDah5S-73">
          <mxGeometry relative="1" as="geometry">
            <mxPoint x="465" y="650" as="targetPoint" />
            <mxPoint x="465" y="520" as="sourcePoint" />
          </mxGeometry>
        </mxCell>
        <mxCell id="RSMacvFGFgpkKbJDah5S-81" style="edgeStyle=orthogonalEdgeStyle;rounded=0;orthogonalLoop=1;jettySize=auto;html=1;exitX=0;exitY=0.5;exitDx=0;exitDy=0;entryX=0;entryY=0.5;entryDx=0;entryDy=0;curved=1;" edge="1" parent="1" source="RSMacvFGFgpkKbJDah5S-73" target="RSMacvFGFgpkKbJDah5S-66">
          <mxGeometry relative="1" as="geometry">
            <Array as="points">
              <mxPoint x="330" y="685" />
              <mxPoint x="330" y="475" />
            </Array>
          </mxGeometry>
        </mxCell>
        <mxCell id="RSMacvFGFgpkKbJDah5S-90" style="edgeStyle=orthogonalEdgeStyle;rounded=0;orthogonalLoop=1;jettySize=auto;html=1;exitX=0;exitY=1;exitDx=0;exitDy=0;entryX=0;entryY=0.5;entryDx=0;entryDy=0;curved=1;" edge="1" parent="1" source="RSMacvFGFgpkKbJDah5S-73" target="RSMacvFGFgpkKbJDah5S-3">
          <mxGeometry relative="1" as="geometry">
            <Array as="points">
              <mxPoint x="270" y="717" />
              <mxPoint x="270" y="265" />
            </Array>
          </mxGeometry>
        </mxCell>
        <mxCell id="RSMacvFGFgpkKbJDah5S-73" value="MEASURE-MENT REELAPSE + NEW&lt;div&gt;&amp;nbsp;MEASURE-&lt;/div&gt;&lt;div&gt;MENT&lt;/div&gt;" style="ellipse;whiteSpace=wrap;html=1;aspect=fixed;" vertex="1" parent="1">
          <mxGeometry x="420" y="640" width="90" height="90" as="geometry" />
        </mxCell>
        <mxCell id="RSMacvFGFgpkKbJDah5S-78" value="CLK IN interrupt/&lt;div&gt;25th MIDI CLK interrupt/&lt;/div&gt;&lt;div&gt;TAP TEMPO Depressed&lt;br&gt;&lt;div&gt;(second IP CAP)&lt;/div&gt;&lt;/div&gt;" style="text;html=1;align=center;verticalAlign=middle;resizable=0;points=[];autosize=1;strokeColor=none;fillColor=none;fontSize=8;rotation=-90;" vertex="1" parent="1">
          <mxGeometry x="304" y="550" width="110" height="50" as="geometry" />
        </mxCell>
        <mxCell id="RSMacvFGFgpkKbJDah5S-80" value="&lt;font style=&quot;font-size: 8px;&quot;&gt;TIM3 overflow&lt;/font&gt;&lt;div&gt;&lt;font style=&quot;font-size: 8px;&quot;&gt;(SYNC COMPLETED)&lt;/font&gt;&lt;/div&gt;" style="text;html=1;align=center;verticalAlign=middle;resizable=0;points=[];autosize=1;strokeColor=none;fillColor=none;" vertex="1" parent="1">
          <mxGeometry x="590" y="245" width="100" height="40" as="geometry" />
        </mxCell>
        <mxCell id="RSMacvFGFgpkKbJDah5S-89" value="&lt;font style=&quot;font-size: 8px;&quot;&gt;TIM3 overflow&lt;/font&gt;&lt;div&gt;&lt;font style=&quot;font-size: 8px;&quot;&gt;(SYNC COMPLETED)&lt;/font&gt;&lt;/div&gt;" style="text;html=1;align=center;verticalAlign=middle;resizable=0;points=[];autosize=1;strokeColor=none;fillColor=none;rotation=-90;" vertex="1" parent="1">
          <mxGeometry x="200" y="455" width="100" height="40" as="geometry" />
        </mxCell>
        <mxCell id="RSMacvFGFgpkKbJDah5S-91" value="yes" style="text;html=1;align=center;verticalAlign=middle;resizable=0;points=[];autosize=1;strokeColor=none;fillColor=none;" vertex="1" parent="1">
          <mxGeometry x="897" y="500" width="40" height="30" as="geometry" />
        </mxCell>
        <mxCell id="RSMacvFGFgpkKbJDah5S-109" style="edgeStyle=orthogonalEdgeStyle;rounded=0;orthogonalLoop=1;jettySize=auto;html=1;exitX=0;exitY=0.5;exitDx=0;exitDy=0;entryX=0;entryY=0.5;entryDx=0;entryDy=0;" edge="1" parent="1" source="RSMacvFGFgpkKbJDah5S-92" target="RSMacvFGFgpkKbJDah5S-35">
          <mxGeometry relative="1" as="geometry">
            <Array as="points">
              <mxPoint x="760" y="1020" />
              <mxPoint x="760" y="115" />
            </Array>
          </mxGeometry>
        </mxCell>
        <mxCell id="RSMacvFGFgpkKbJDah5S-92" value="Set SW OUT HIGH&lt;div&gt;and &#39;rebadge&#39; 25th interrupt as the first&lt;/div&gt;" style="rounded=0;whiteSpace=wrap;html=1;" vertex="1" parent="1">
          <mxGeometry x="835" y="990" width="120" height="60" as="geometry" />
        </mxCell>
        <mxCell id="RSMacvFGFgpkKbJDah5S-96" style="edgeStyle=orthogonalEdgeStyle;rounded=0;orthogonalLoop=1;jettySize=auto;html=1;exitX=0.5;exitY=1;exitDx=0;exitDy=0;entryX=0.5;entryY=0;entryDx=0;entryDy=0;" edge="1" parent="1" source="RSMacvFGFgpkKbJDah5S-93" target="RSMacvFGFgpkKbJDah5S-92">
          <mxGeometry relative="1" as="geometry" />
        </mxCell>
        <mxCell id="RSMacvFGFgpkKbJDah5S-125" style="edgeStyle=orthogonalEdgeStyle;rounded=0;orthogonalLoop=1;jettySize=auto;html=1;exitX=1;exitY=0.5;exitDx=0;exitDy=0;entryX=0;entryY=0.5;entryDx=0;entryDy=0;" edge="1" parent="1" source="RSMacvFGFgpkKbJDah5S-93" target="RSMacvFGFgpkKbJDah5S-124">
          <mxGeometry relative="1" as="geometry" />
        </mxCell>
        <mxCell id="RSMacvFGFgpkKbJDah5S-93" value="25 MIDI&amp;nbsp;&lt;div&gt;CLK interrupts received?&lt;/div&gt;" style="rhombus;whiteSpace=wrap;html=1;" vertex="1" parent="1">
          <mxGeometry x="830" y="860" width="130" height="80" as="geometry" />
        </mxCell>
        <mxCell id="RSMacvFGFgpkKbJDah5S-97" value="yes" style="text;html=1;align=center;verticalAlign=middle;resizable=0;points=[];autosize=1;strokeColor=none;fillColor=none;" vertex="1" parent="1">
          <mxGeometry x="900" y="930" width="40" height="30" as="geometry" />
        </mxCell>
        <mxCell id="RSMacvFGFgpkKbJDah5S-100" value="no" style="text;html=1;align=center;verticalAlign=middle;resizable=0;points=[];autosize=1;strokeColor=none;fillColor=none;" vertex="1" parent="1">
          <mxGeometry x="950" y="870" width="40" height="30" as="geometry" />
        </mxCell>
        <mxCell id="RSMacvFGFgpkKbJDah5S-115" style="edgeStyle=orthogonalEdgeStyle;rounded=0;orthogonalLoop=1;jettySize=auto;html=1;exitX=0.5;exitY=1;exitDx=0;exitDy=0;entryX=0.5;entryY=0;entryDx=0;entryDy=0;" edge="1" parent="1" source="RSMacvFGFgpkKbJDah5S-101" target="RSMacvFGFgpkKbJDah5S-36">
          <mxGeometry relative="1" as="geometry" />
        </mxCell>
        <mxCell id="RSMacvFGFgpkKbJDah5S-101" value="Set SW OUT HIGH" style="rounded=0;whiteSpace=wrap;html=1;" vertex="1" parent="1">
          <mxGeometry x="835" y="320" width="120" height="60" as="geometry" />
        </mxCell>
        <mxCell id="RSMacvFGFgpkKbJDah5S-105" value="no" style="text;html=1;align=center;verticalAlign=middle;resizable=0;points=[];autosize=1;strokeColor=none;fillColor=none;" vertex="1" parent="1">
          <mxGeometry x="950" y="440" width="40" height="30" as="geometry" />
        </mxCell>
        <mxCell id="RSMacvFGFgpkKbJDah5S-130" style="edgeStyle=orthogonalEdgeStyle;rounded=0;orthogonalLoop=1;jettySize=auto;html=1;exitX=0.5;exitY=1;exitDx=0;exitDy=0;entryX=0.5;entryY=0;entryDx=0;entryDy=0;" edge="1" parent="1" source="RSMacvFGFgpkKbJDah5S-106" target="RSMacvFGFgpkKbJDah5S-128">
          <mxGeometry relative="1" as="geometry" />
        </mxCell>
        <mxCell id="RSMacvFGFgpkKbJDah5S-106" value="Set SW OUT LOW" style="rounded=0;whiteSpace=wrap;html=1;" vertex="1" parent="1">
          <mxGeometry x="835" y="670" width="120" height="60" as="geometry" />
        </mxCell>
        <mxCell id="RSMacvFGFgpkKbJDah5S-112" style="edgeStyle=orthogonalEdgeStyle;rounded=0;orthogonalLoop=1;jettySize=auto;html=1;exitX=0.5;exitY=0;exitDx=0;exitDy=0;entryX=1;entryY=0.5;entryDx=0;entryDy=0;" edge="1" parent="1" source="RSMacvFGFgpkKbJDah5S-110" target="RSMacvFGFgpkKbJDah5S-35">
          <mxGeometry relative="1" as="geometry" />
        </mxCell>
        <mxCell id="RSMacvFGFgpkKbJDah5S-110" value="Set SW OUT LOW" style="rounded=0;whiteSpace=wrap;html=1;" vertex="1" parent="1">
          <mxGeometry x="1110" y="320" width="120" height="60" as="geometry" />
        </mxCell>
        <mxCell id="RSMacvFGFgpkKbJDah5S-119" style="edgeStyle=orthogonalEdgeStyle;rounded=0;orthogonalLoop=1;jettySize=auto;html=1;exitX=1;exitY=0.5;exitDx=0;exitDy=0;entryX=0.25;entryY=1;entryDx=0;entryDy=0;" edge="1" parent="1" source="RSMacvFGFgpkKbJDah5S-117" target="RSMacvFGFgpkKbJDah5S-110">
          <mxGeometry relative="1" as="geometry">
            <Array as="points">
              <mxPoint x="1140" y="470" />
            </Array>
          </mxGeometry>
        </mxCell>
        <mxCell id="RSMacvFGFgpkKbJDah5S-121" style="edgeStyle=orthogonalEdgeStyle;rounded=0;orthogonalLoop=1;jettySize=auto;html=1;exitX=0.5;exitY=0;exitDx=0;exitDy=0;entryX=1;entryY=0.5;entryDx=0;entryDy=0;" edge="1" parent="1" source="RSMacvFGFgpkKbJDah5S-117" target="RSMacvFGFgpkKbJDah5S-35">
          <mxGeometry relative="1" as="geometry" />
        </mxCell>
        <mxCell id="RSMacvFGFgpkKbJDah5S-117" value="IP CAP timeout?" style="rhombus;whiteSpace=wrap;html=1;" vertex="1" parent="1">
          <mxGeometry x="1000" y="430" width="130" height="80" as="geometry" />
        </mxCell>
        <mxCell id="RSMacvFGFgpkKbJDah5S-120" value="yes" style="text;html=1;align=center;verticalAlign=middle;resizable=0;points=[];autosize=1;strokeColor=none;fillColor=none;" vertex="1" parent="1">
          <mxGeometry x="1120" y="470" width="40" height="30" as="geometry" />
        </mxCell>
        <mxCell id="RSMacvFGFgpkKbJDah5S-122" value="no" style="text;html=1;align=center;verticalAlign=middle;resizable=0;points=[];autosize=1;strokeColor=none;fillColor=none;" vertex="1" parent="1">
          <mxGeometry x="1030" y="400" width="40" height="30" as="geometry" />
        </mxCell>
        <mxCell id="RSMacvFGFgpkKbJDah5S-126" style="edgeStyle=orthogonalEdgeStyle;rounded=0;orthogonalLoop=1;jettySize=auto;html=1;exitX=1;exitY=0.5;exitDx=0;exitDy=0;entryX=0.75;entryY=1;entryDx=0;entryDy=0;" edge="1" parent="1" source="RSMacvFGFgpkKbJDah5S-124" target="RSMacvFGFgpkKbJDah5S-110">
          <mxGeometry relative="1" as="geometry" />
        </mxCell>
        <mxCell id="RSMacvFGFgpkKbJDah5S-131" style="edgeStyle=orthogonalEdgeStyle;rounded=0;orthogonalLoop=1;jettySize=auto;html=1;exitX=0.5;exitY=0;exitDx=0;exitDy=0;entryX=1;entryY=0.5;entryDx=0;entryDy=0;" edge="1" parent="1" source="RSMacvFGFgpkKbJDah5S-124" target="RSMacvFGFgpkKbJDah5S-132">
          <mxGeometry relative="1" as="geometry" />
        </mxCell>
        <mxCell id="RSMacvFGFgpkKbJDah5S-124" value="IP CAP timeout?" style="rhombus;whiteSpace=wrap;html=1;" vertex="1" parent="1">
          <mxGeometry x="1000" y="860" width="130" height="80" as="geometry" />
        </mxCell>
        <mxCell id="RSMacvFGFgpkKbJDah5S-127" value="yes" style="text;html=1;align=center;verticalAlign=middle;resizable=0;points=[];autosize=1;strokeColor=none;fillColor=none;" vertex="1" parent="1">
          <mxGeometry x="1120" y="870" width="40" height="30" as="geometry" />
        </mxCell>
        <mxCell id="RSMacvFGFgpkKbJDah5S-129" style="edgeStyle=orthogonalEdgeStyle;rounded=0;orthogonalLoop=1;jettySize=auto;html=1;exitX=0.5;exitY=1;exitDx=0;exitDy=0;entryX=0.5;entryY=0;entryDx=0;entryDy=0;" edge="1" parent="1" source="RSMacvFGFgpkKbJDah5S-128" target="RSMacvFGFgpkKbJDah5S-93">
          <mxGeometry relative="1" as="geometry" />
        </mxCell>
        <mxCell id="RSMacvFGFgpkKbJDah5S-128" value="MIDI CLK interrupt received" style="rounded=0;whiteSpace=wrap;html=1;" vertex="1" parent="1">
          <mxGeometry x="835" y="770" width="120" height="60" as="geometry" />
        </mxCell>
        <mxCell id="RSMacvFGFgpkKbJDah5S-133" style="edgeStyle=orthogonalEdgeStyle;rounded=0;orthogonalLoop=1;jettySize=auto;html=1;exitX=0.5;exitY=1;exitDx=0;exitDy=0;entryX=0.5;entryY=0;entryDx=0;entryDy=0;" edge="1" parent="1" source="RSMacvFGFgpkKbJDah5S-132" target="RSMacvFGFgpkKbJDah5S-106">
          <mxGeometry relative="1" as="geometry" />
        </mxCell>
        <mxCell id="RSMacvFGFgpkKbJDah5S-132" value="WAIT 2" style="ellipse;whiteSpace=wrap;html=1;aspect=fixed;" vertex="1" parent="1">
          <mxGeometry x="850" y="540" width="90" height="90" as="geometry" />
        </mxCell>
        <mxCell id="RSMacvFGFgpkKbJDah5S-135" value="no" style="text;html=1;align=center;verticalAlign=middle;resizable=0;points=[];autosize=1;strokeColor=none;fillColor=none;" vertex="1" parent="1">
          <mxGeometry x="1020" y="840" width="40" height="30" as="geometry" />
        </mxCell>
      </root>
    </mxGraphModel>
  </diagram>
</mxfile>
